IKResults
version=1
nRows=8
nColumns=40
inDegrees=yes

Units are S.I. units (second, meters, Newtons, ...)
Angles are in degrees.

endheader
time	pelvis_tilt	pelvis_list	pelvis_rotation	pelvis_tx	pelvis_ty	pelvis_tz	hip_flexion_r	hip_adduction_r	hip_rotation_r	knee_angle_r	knee_angle_r_beta	ankle_angle_r	subtalar_angle_r	mtp_angle_r	hip_flexion_l	hip_adduction_l	hip_rotation_l	knee_angle_l	knee_angle_l_beta	ankle_angle_l	subtalar_angle_l	mtp_angle_l	lumbar_extension	lumbar_bending	lumbar_rotation	arm_flex_r	arm_add_r	arm_rot_r	elbow_flex_r	pro_sup_r	wrist_flex_r	wrist_dev_r	arm_flex_l	arm_add_l	arm_rot_l	elbow_flex_l	pro_sup_l	wrist_flex_l	wrist_dev_l
      0.00000000	     16.89823349	     -0.92450426	     -1.90336504	     -0.76907473	      0.94857434	     -1.00978129	      1.33305992	     -2.24079449	     -7.68664557	    -51.46868551	     -0.89829802	      4.29523385	    -12.80167313	      3.08682823	    -21.72671405	      0.10810819	     21.30179688	     -9.97361398	     -0.17407240	      9.52270982	     -1.69149106	     -3.34590474	    -23.99268553	      0.64991079	     -2.48853470	     -8.25056573	    -11.26989186	      1.11036756	     20.31176814	     89.95437384	      0.00000000	      0.00000000	     14.25553293	     15.19258800	     -0.00822787	     24.64007849	     89.95437384	      0.00000000	      0.00000000
      0.01000000	     16.46566217	     -0.92205638	     -2.03236246	     -0.76120735	      0.94744069	     -1.01088221	      2.66926360	     -2.39098169	     -8.23833007	    -49.89749712	     -0.87087561	      4.73400376	    -12.56389049	      3.10395829	    -21.74227225	     -0.03649504	     21.45843225	    -10.07859724	     -0.17590471	      9.85066701	     -1.54923017	     -3.32073892	    -23.57473213	      0.63381432	     -2.44467455	     -8.69400967	    -11.26780968	      1.10105014	     20.16949897	     89.95437384	      0.00000000	      0.00000000	     15.10141197	     15.29227681	      0.20926537	     25.42392262	     89.95437384	      0.00000000	      0.00000000
      0.02000000	     16.64751254	     -1.60435001	     -1.72074972	     -0.75299193	      0.94738203	     -1.01175467	      2.76765260	     -1.53876810	     -8.86850283	    -47.36932910	     -0.82675076	      5.10210078	    -12.42311046	      3.51032815	    -22.56576878	      0.65798399	     21.04462317	    -10.01285506	     -0.17475729	     10.32739846	     -1.13259004	     -3.46047110	    -23.86132002	      1.41492331	     -2.57415513	     -9.01821980	    -11.19451533	      0.63025685	     19.98308418	     89.95437384	      0.00000000	      0.00000000	     15.85610676	     15.19932844	      1.39792215	     26.39050547	     89.95437384	      0.00000000	      0.00000000
      0.03000000	     16.45277601	     -1.77570641	     -1.79623334	     -0.74501677	      0.94639869	     -1.01254617	      3.57421787	     -1.40664722	     -9.32027377	    -45.28100581	     -0.79030264	      5.30491417	    -12.08815208	      3.77097669	    -22.90308577	      0.69464000	     20.96649674	    -10.04381753	     -0.17529769	     10.85197071	     -0.88960852	     -3.52977184	    -23.73492331	      1.57753031	     -2.45316075	     -9.39584723	    -11.15235007	      0.54476747	     19.76923461	     89.95437384	      0.00000000	      0.00000000	     16.63302800	     15.12696157	      2.13851764	     27.33155265	     89.95437384	      0.00000000	      0.00000000
      0.04000000	     15.88178788	     -1.59526370	     -2.01269682	     -0.73723233	      0.94455706	     -1.01338972	      5.01624761	     -1.81707214	     -9.98473217	    -43.58009717	     -0.76061618	      5.37620263	    -11.68802122	      3.77109812	    -22.67706797	      0.37452112	     21.15344442	    -10.30475716	     -0.17985194	     11.12861858	     -0.74152564	     -3.47046669	    -23.20419893	      1.35688122	     -2.23942768	     -9.89312049	    -11.14252093	      0.63241600	     19.69293100	     89.95437384	      0.00000000	      0.00000000	     17.40774870	     15.10192355	      2.35794571	     28.28436005	     89.95437384	      0.00000000	      0.00000000
      0.05000000	     16.12074912	     -2.30016084	     -1.73539868	     -0.72883831	      0.94429657	     -1.01385857	      4.77867167	     -0.88962363	    -10.44101345	    -40.46845372	     -0.70630776	      5.06879160	    -11.18793153	      4.23888691	    -23.57670604	      1.08469984	     20.76298716	    -10.24282890	     -0.17877109	     11.71796415	     -0.05148382	     -3.56311196	    -23.56119145	      2.14668209	     -2.36511617	    -10.08506278	    -11.07743298	      0.36926305	     19.40468007	     89.95437384	      0.00000000	      0.00000000	     17.91577809	     14.84749846	      4.14924592	     29.50950879	     89.95437384	      0.00000000	      0.00000000
      0.06000000	     15.66136403	     -2.25931357	     -2.04881521	     -0.72099676	      0.94250705	     -1.01412307	      5.87355151	     -1.01158556	    -10.79273699	    -38.29947148	     -0.66845188	      4.64132510	    -10.28590138	      4.31566027	    -23.58968492	      0.84199548	     20.73798661	    -10.35711495	     -0.18076576	     12.35397652	      0.09210804	     -3.58372969	    -23.16349952	      2.01372890	     -2.07348752	    -10.30844357	    -10.99743416	      0.32001311	     19.05040586	     89.95437384	      0.00000000	      0.00000000	     18.53566256	     14.77660242	      4.57297882	     30.59776315	     89.95437384	      0.00000000	      0.00000000
      0.07000000	     15.56722111	     -2.57177052	     -1.93510524	     -0.71287964	      0.94130510	     -1.01470628	      6.19915720	     -0.76453413	    -11.73249012	    -35.57917876	     -0.62097381	      4.21223246	     -9.28561736	      4.46614743	    -24.04183495	      1.09925488	     20.42094880	    -10.39386092	     -0.18140709	     12.74738489	      0.74022805	     -3.69522355	    -23.18275521	      2.38471076	     -2.06837186	    -10.57529255	    -10.98155290	      0.35400485	     18.94428857	     89.95437384	      0.00000000	      0.00000000	     19.06909606	     14.52561619	      5.69594845	     31.83098892	     89.95437384	      0.00000000	      0.00000000
